<?xml version="1.0" encoding="UTF-8"?>
<svg width="400" height="400" viewBox="0 0 400 400" xmlns="http://www.w3.org/2000/svg">
  <style>
    .pixel {
      width: 20px;
      height: 20px;
    }
  </style>
  <rect width="400" height="400" fill="#33323d" />
  
  <!-- Sky -->
  <g>
    <rect x="0" y="0" width="20" height="20" fill="#5fcde4" class="pixel" />
    <rect x="20" y="0" width="20" height="20" fill="#5fcde4" class="pixel" />
    <rect x="40" y="0" width="20" height="20" fill="#5fcde4" class="pixel" />
    <rect x="60" y="0" width="20" height="20" fill="#5fcde4" class="pixel" />
    <rect x="80" y="0" width="20" height="20" fill="#5fcde4" class="pixel" />
    <rect x="100" y="0" width="20" height="20" fill="#5fcde4" class="pixel" />
    <rect x="120" y="0" width="20" height="20" fill="#5fcde4" class="pixel" />
    <rect x="140" y="0" width="20" height="20" fill="#5fcde4" class="pixel" />
    <rect x="160" y="0" width="20" height="20" fill="#5fcde4" class="pixel" />
    <rect x="180" y="0" width="20" height="20" fill="#5fcde4" class="pixel" />
    <rect x="200" y="0" width="20" height="20" fill="#5fcde4" class="pixel" />
    <rect x="220" y="0" width="20" height="20" fill="#5fcde4" class="pixel" />
    <rect x="240" y="0" width="20" height="20" fill="#5fcde4" class="pixel" />
    <rect x="260" y="0" width="20" height="20" fill="#5fcde4" class="pixel" />
    <rect x="280" y="0" width="20" height="20" fill="#5fcde4" class="pixel" />
    <rect x="300" y="0" width="20" height="20" fill="#5fcde4" class="pixel" />
    <rect x="320" y="0" width="20" height="20" fill="#5fcde4" class="pixel" />
    <rect x="340" y="0" width="20" height="20" fill="#5fcde4" class="pixel" />
    <rect x="360" y="0" width="20" height="20" fill="#5fcde4" class="pixel" />
    <rect x="380" y="0" width="20" height="20" fill="#5fcde4" class="pixel" />
  </g>
  
  <!-- More sky rows -->
  <g>
    <rect x="0" y="20" width="20" height="20" fill="#5fcde4" class="pixel" />
    <rect x="20" y="20" width="20" height="20" fill="#5fcde4" class="pixel" />
    <rect x="40" y="20" width="20" height="20" fill="#5fcde4" class="pixel" />
    <rect x="60" y="20" width="20" height="20" fill="#5fcde4" class="pixel" />
    <rect x="80" y="20" width="20" height="20" fill="#5fcde4" class="pixel" />
    <rect x="100" y="20" width="20" height="20" fill="#5fcde4" class="pixel" />
    <rect x="120" y="20" width="20" height="20" fill="#5fcde4" class="pixel" />
    <rect x="140" y="20" width="20" height="20" fill="#5fcde4" class="pixel" />
    <rect x="160" y="20" width="20" height="20" fill="#5fcde4" class="pixel" />
    <rect x="180" y="20" width="20" height="20" fill="#5fcde4" class="pixel" />
    <rect x="200" y="20" width="20" height="20" fill="#5fcde4" class="pixel" />
    <rect x="220" y="20" width="20" height="20" fill="#5fcde4" class="pixel" />
    <rect x="240" y="20" width="20" height="20" fill="#5fcde4" class="pixel" />
    <rect x="260" y="20" width="20" height="20" fill="#5fcde4" class="pixel" />
    <rect x="280" y="20" width="20" height="20" fill="#5fcde4" class="pixel" />
    <rect x="300" y="20" width="20" height="20" fill="#5fcde4" class="pixel" />
    <rect x="320" y="20" width="20" height="20" fill="#5fcde4" class="pixel" />
    <rect x="340" y="20" width="20" height="20" fill="#5fcde4" class="pixel" />
    <rect x="360" y="20" width="20" height="20" fill="#5fcde4" class="pixel" />
    <rect x="380" y="20" width="20" height="20" fill="#5fcde4" class="pixel" />
  </g>
  
  <!-- Sun -->
  <g>
    <rect x="60" y="40" width="20" height="20" fill="#ffde59" class="pixel" />
    <rect x="80" y="40" width="20" height="20" fill="#ffde59" class="pixel" />
    <rect x="60" y="60" width="20" height="20" fill="#ffde59" class="pixel" />
    <rect x="80" y="60" width="20" height="20" fill="#ffde59" class="pixel" />
  </g>
  
  <!-- Mountain -->
  <g>
    <rect x="160" y="100" width="20" height="20" fill="#7b6b73" class="pixel" />
    <rect x="180" y="100" width="20" height="20" fill="#7b6b73" class="pixel" />
    <rect x="140" y="120" width="20" height="20" fill="#7b6b73" class="pixel" />
    <rect x="160" y="120" width="20" height="20" fill="#7b6b73" class="pixel" />
    <rect x="180" y="120" width="20" height="20" fill="#7b6b73" class="pixel" />
    <rect x="200" y="120" width="20" height="20" fill="#7b6b73" class="pixel" />
    <rect x="120" y="140" width="20" height="20" fill="#7b6b73" class="pixel" />
    <rect x="140" y="140" width="20" height="20" fill="#7b6b73" class="pixel" />
    <rect x="160" y="140" width="20" height="20" fill="#7b6b73" class="pixel" />
    <rect x="180" y="140" width="20" height="20" fill="#7b6b73" class="pixel" />
    <rect x="200" y="140" width="20" height="20" fill="#7b6b73" class="pixel" />
    <rect x="220" y="140" width="20" height="20" fill="#7b6b73" class="pixel" />
  </g>
  
  <!-- Trees -->
  <g>
    <rect x="260" y="120" width="20" height="20" fill="#438f29" class="pixel" />
    <rect x="280" y="120" width="20" height="20" fill="#438f29" class="pixel" />
    <rect x="240" y="140" width="20" height="20" fill="#438f29" class="pixel" />
    <rect x="260" y="140" width="20" height="20" fill="#438f29" class="pixel" />
    <rect x="280" y="140" width="20" height="20" fill="#438f29" class="pixel" />
    <rect x="300" y="140" width="20" height="20" fill="#438f29" class="pixel" />
    <rect x="260" y="160" width="20" height="20" fill="#6b4226" class="pixel" />
    <rect x="280" y="160" width="20" height="20" fill="#6b4226" class="pixel" />
    <rect x="260" y="180" width="20" height="20" fill="#6b4226" class="pixel" />
    <rect x="280" y="180" width="20" height="20" fill="#6b4226" class="pixel" />
  </g>
  
  <!-- Ground -->
  <g>
    <rect x="0" y="200" width="20" height="20" fill="#7cad6a" class="pixel" />
    <rect x="20" y="200" width="20" height="20" fill="#7cad6a" class="pixel" />
    <rect x="40" y="200" width="20" height="20" fill="#7cad6a" class="pixel" />
    <rect x="60" y="200" width="20" height="20" fill="#7cad6a" class="pixel" />
    <rect x="80" y="200" width="20" height="20" fill="#7cad6a" class="pixel" />
    <rect x="100" y="200" width="20" height="20" fill="#7cad6a" class="pixel" />
    <rect x="120" y="200" width="20" height="20" fill="#7cad6a" class="pixel" />
    <rect x="140" y="200" width="20" height="20" fill="#7cad6a" class="pixel" />
    <rect x="160" y="200" width="20" height="20" fill="#7cad6a" class="pixel" />
    <rect x="180" y="200" width="20" height="20" fill="#7cad6a" class="pixel" />
    <rect x="200" y="200" width="20" height="20" fill="#7cad6a" class="pixel" />
    <rect x="220" y="200" width="20" height="20" fill="#7cad6a" class="pixel" />
    <rect x="240" y="200" width="20" height="20" fill="#7cad6a" class="pixel" />
    <rect x="260" y="200" width="20" height="20" fill="#7cad6a" class="pixel" />
    <rect x="280" y="200" width="20" height="20" fill="#7cad6a" class="pixel" />
    <rect x="300" y="200" width="20" height="20" fill="#7cad6a" class="pixel" />
    <rect x="320" y="200" width="20" height="20" fill="#7cad6a" class="pixel" />
    <rect x="340" y="200" width="20" height="20" fill="#7cad6a" class="pixel" />
    <rect x="360" y="200" width="20" height="20" fill="#7cad6a" class="pixel" />
    <rect x="380" y="200" width="20" height="20" fill="#7cad6a" class="pixel" />
  </g>
  
  <text x="200" y="350" text-anchor="middle" fill="#fff" font-family="Arial, sans-serif" font-size="20" font-weight="bold" style="text-transform:uppercase; letter-spacing:2px;">Pixel Art Style</text>
</svg>